<?xml version="1.0" encoding="UTF-8"?>
<!-- Generated by Pixelmator Pro 3.8 -->
<svg width="16" height="16" viewBox="0 0 16 16" xmlns="http://www.w3.org/2000/svg">
    <path id="path1" fill="#89f94f" fill-rule="evenodd" stroke="none" d="M 0 11.895065 C 0 12.220445 0.103601 12.521626 0.279616 12.767424 L 0 14.457565 L 1.336815 13.386292 C 1.390414 13.39209 1.444859 13.395065 1.5 13.395065 L 14.5 13.395065 C 15.328427 13.395065 16 12.723492 16 11.895065 L 16 4.119555 C 16 3.291128 15.328427 2.619555 14.5 2.619555 L 1.5 2.619555 C 0.671573 2.619555 0 3.291128 0 4.119555 L 0 11.895065 Z M 4.786355 12.223814 L 11.166862 12.223814 C 11.735572 12.223814 11.88239 11.864606 11.883041 11.54122 C 11.882513 11.408549 11.860526 11.276834 11.817934 11.151165 C 11.331259 9.760623 9.796939 8.745834 7.976608 8.745834 C 6.156275 8.745834 4.621828 9.760623 4.135283 11.151165 C 4.092691 11.276834 4.070706 11.408549 4.070176 11.54122 C 4.070827 11.864606 4.217773 12.223814 4.786355 12.223814 Z M 6.121052 5.852934 C 6.121052 6.965953 6.951821 7.868213 7.976608 7.868213 C 9.001395 7.868213 9.832164 6.965953 9.832164 5.852934 C 9.832164 4.739916 9.001395 3.837656 7.976608 3.837656 C 6.951821 3.837656 6.121052 4.739916 6.121052 5.852934 Z"/>
</svg>
