<?xml version="1.0" encoding="UTF-8"?>
<!-- Generated by Pixelmator Pro 3.8 -->
<svg width="16" height="16" viewBox="0 0 16 16" xmlns="http://www.w3.org/2000/svg">
    <path id="path1" fill="#89f94f" fill-rule="evenodd" stroke="none" d="M 7.76297 12.521255 L 12.904069 12.521255 C 14.355019 12.521255 15.53125 11.34584 15.53125 9.895888 L 15.53125 3.711691 C 15.53125 2.26174 14.355019 1.086325 12.904069 1.086325 L 3.09593 1.086325 C 1.644977 1.086325 0.46875 2.26174 0.46875 3.711691 L 0.46875 9.895888 C 0.46875 11.34584 1.644977 12.521255 3.09593 12.521255 L 3.913275 12.521255 L 3.913275 14.563206 C 3.913282 14.822765 4.069748 15.056766 4.309719 15.156093 C 4.549687 15.25542 4.8259 15.200519 5.00957 15.016987 L 7.76297 12.521255 Z M 3.78088 5.327714 C 4.597505 5.327714 5.25951 5.989719 5.25951 6.806344 C 5.25951 7.622969 4.597505 8.284973 3.78088 8.284973 C 2.964256 8.284973 2.302251 7.622969 2.302251 6.806344 C 2.302251 5.989719 2.964256 5.327714 3.78088 5.327714 Z M 7.980189 5.327714 C 8.796813 5.327714 9.458818 5.989719 9.458818 6.806344 C 9.458818 7.622969 8.796813 8.284973 7.980189 8.284973 C 7.163564 8.284973 6.501559 7.622969 6.501559 6.806344 C 6.501559 5.989719 7.163564 5.327714 7.980189 5.327714 Z M 12.179497 5.327714 C 12.996121 5.327714 13.658127 5.989719 13.658127 6.806344 C 13.658127 7.622969 12.996121 8.284973 12.179497 8.284973 C 11.362872 8.284973 10.700868 7.622969 10.700868 6.806344 C 10.700868 5.989719 11.362872 5.327714 12.179497 5.327714 Z"/>
</svg>
